<!-- Generated by IcoMoon.io -->
<svg version="1.1" xmlns="http://www.w3.org/2000/svg" width="1024" height="1024" viewBox="0 0 1024 1024">
<title></title>
<g id="icomoon-ignore">
</g>
<path d="M511.317 717.44c110.763 0 200.789-90.069 200.789-200.832 0-60.117-26.581-114.091-68.523-150.955-14.763-12.928-31.36-23.723-49.408-31.915-25.301-11.52-53.291-17.963-82.816-17.963s-57.557 6.443-82.816 17.963c-18.091 8.277-34.731 19.072-49.408 31.957-42.027 36.864-68.608 90.837-68.608 150.955 0 110.72 90.112 200.789 200.789 200.789zM512 368.256c81.963 0 148.437 66.432 148.437 148.395s-66.475 148.437-148.437 148.437-148.437-66.432-148.437-148.437c0-81.963 66.475-148.395 148.437-148.395zM734.848 384h289.152v438.528c0 111.275-90.197 201.472-201.472 201.472h-618.368c-111.275 0-204.16-90.197-204.16-201.472v-438.528h287.872c-23.211 38.955-37.205 84.011-37.205 132.651 0 143.957 116.693 260.651 260.651 260.651s260.651-116.693 260.651-260.651c0.043-48.64-13.952-93.696-37.12-132.651zM822.528 0h-523.861v213.333h-42.667v-213.333h-42.667v213.333h-42.667v-210.048c-14.763 2.432-29.099 6.101-42.667 11.52v198.528h-42.667v-175.019c-51.285 36.565-85.333 95.829-85.333 163.157v139.861h318.848c49.792-54.699 119.381-85.333 192.469-85.333 73.472 0 142.976 30.933 192.469 85.333h320.213v-139.861c0-111.275-90.197-201.472-201.472-201.472zM938.667 224.64c0 17.323-14.208 31.36-31.787 31.36h-107.136c-17.536 0-31.744-14.037-31.744-31.36v-107.947c0-17.323 14.208-31.36 31.744-31.36h107.136c17.579 0 31.787 14.037 31.787 31.36v107.947z"></path>
</svg>
