<!-- Generated by IcoMoon.io -->
<svg version="1.1" xmlns="http://www.w3.org/2000/svg" width="1024" height="1024" viewBox="0 0 1024 1024">
<title></title>
<g id="icomoon-ignore">
</g>
<path d="M1024 194.432c-37.675 16.725-78.165 27.989-120.661 33.067 43.392-25.984 76.715-67.157 92.373-116.224-40.576 24.064-85.547 41.557-133.419 50.987-38.272-40.832-92.928-66.347-153.344-66.347-135.637 0-235.307 126.549-204.672 257.92-174.549-8.747-329.344-92.373-432.981-219.477-55.040 94.421-28.544 217.941 64.981 280.491-34.389-1.109-66.816-10.539-95.104-26.283-2.304 97.323 67.456 188.373 168.491 208.64-29.568 8.021-61.952 9.899-94.891 3.584 26.709 83.456 104.277 144.171 196.267 145.877-88.32 69.248-199.595 100.181-311.040 87.040 92.971 59.605 203.435 94.379 322.048 94.379 390.059 0 610.432-329.429 597.12-624.896 41.045-29.653 76.672-66.645 104.832-108.757z"></path>
</svg>
